<?xml version="1.0" encoding="utf-8"?>
<!-- Generator: Adobe Illustrator 23.0.0, SVG Export Plug-In . SVG Version: 6.00 Build 0)  -->
<svg version="1.1" xmlns="http://www.w3.org/2000/svg" xmlns:xlink="http://www.w3.org/1999/xlink" x="0px" y="0px"
	 viewBox="0 0 356.1 305.3" style="enable-background:new 0 0 356.1 305.3;" xml:space="preserve">
<style type="text/css">
	.st0{display:none;}
	.st1{fill:#E6E7E8;}
</style>
<g id="Layer_1" class="st0">
	<title>Asset 1</title>
</g>
<g id="Layer_3">
	<path class="st1" d="M356.1,152.6c0.6,56.2-44.5,102.2-100.7,102.8s-102.2-44.5-102.8-100.7c0-0.7,0-1.3,0-2h50.9
		c0,28.1,22.8,50.9,50.9,50.9s50.9-22.8,50.9-50.9s-22.8-50.9-50.9-50.9c0,0,0,0,0,0H152.6v50.9l-50.9-50.9V50.9h152.6
		C310.6,50.9,356.1,96.4,356.1,152.6C356.1,152.6,356.1,152.6,356.1,152.6z"/>
</g>
<g id="Layer_2">
	<g id="bar_layer">
		<rect id="Bar" class="st1" width="50.9" height="305.3"/>
	</g>
</g>
</svg>
